# xmcd
#
# Track frame offsets:
# 150
# 34058
# 61782
# 88294
# 113205
# 144757
# 169091
# 189459
# 214598
# 235754
# 261072
# 279518
# 303793
#
# Disc length: 4487 seconds
#
#
# Revision: 0
# Processed by: cddbd v1.5.2PL0 Copyright (c) Steve Scherf et al.
# Submitted via: FreeRIP 2.96 
#
DISCID=aa11850d
DTITLE=Henning Mankell - Der Chinese CD3
DYEAR=2008
DGENRE=Hörbuch
TTITLE0=27 - Der Weg nach Kanton 4
TTITLE1=28 - Der Weg nach Kanton 5
TTITLE2=29 - Der Weg nach Kanton 6
TTITLE3=30 - Der Weg nach Kanton 7
TTITLE4=31 - Der Weg nach Kanton 8
TTITLE5=32 - Der Weg nach Kanton 9
TTITLE6=33 - Der Weg nach Kanton 10
TTITLE7=34 - Die Feder und der Stein 1
TTITLE8=35 - Die Feder und der Stein 2
TTITLE9=36 - Die Feder und der Stein 3
TTITLE10=37 - Die Feder und der Stein 4
TTITLE11=38 - Die Feder und der Stein 5
TTITLE12=39 - Die Feder und der Stein 6
EXTD=gelesen von Axel Milberg
EXTT0=
EXTT1=
EXTT2=
EXTT3=
EXTT4=
EXTT5=
EXTT6=
EXTT7=
EXTT8=
EXTT9=
EXTT10=
EXTT11=
EXTT12=
PLAYORDER=
